# Alias Wavefront OBJ File Exported from SketchUp
# with OBJexporter (c) 2010/2011 TIG
# Units = meters

mtllib Shaft2m.mtl

g Shaft2m_Main-Aluminum
usemtl Aluminum
v -0.700000 -1.000000 -0.700000
v -0.600000 -1.000000 -0.600000
v -0.700000 -1.000000 0.700000
v 0.700000 -1.000000 -0.700000
v 0.600000 -1.000000 -0.600000
v 0.600000 -1.000000 0.600000
v -0.600000 -1.000000 0.600000
v 0.700000 -1.000000 0.700000
v -0.700000 1.000000 0.700000
v -0.600000 1.000000 0.600000
v -0.700000 1.000000 -0.700000
v 0.700000 1.000000 0.700000
v 0.600000 1.000000 0.600000
v 0.600000 1.000000 -0.600000
v -0.600000 1.000000 -0.600000
v 0.700000 1.000000 -0.700000
v 0.700000 1.000000 0.700000
v -0.700000 -1.000000 0.700000
v 0.700000 -1.000000 0.700000
v -0.700000 1.000000 0.700000
v -0.700000 1.000000 -0.700000
v -0.700000 -1.000000 0.700000
v -0.700000 1.000000 0.700000
v -0.700000 -1.000000 -0.700000
v -0.700000 1.000000 -0.700000
v 0.700000 -1.000000 -0.700000
v -0.700000 -1.000000 -0.700000
v 0.700000 1.000000 -0.700000
v 0.700000 -1.000000 -0.700000
v 0.700000 1.000000 0.700000
v 0.700000 -1.000000 0.700000
v 0.700000 1.000000 -0.700000
v -0.600000 -1.000000 -0.600000
v -0.600000 1.000000 0.600000
v -0.600000 -1.000000 0.600000
v -0.600000 1.000000 -0.600000
v -0.600000 1.000000 0.600000
v 0.600000 -1.000000 0.600000
v -0.600000 -1.000000 0.600000
v 0.600000 1.000000 0.600000
v 0.600000 1.000000 -0.600000
v 0.600000 -1.000000 0.600000
v 0.600000 1.000000 0.600000
v 0.600000 -1.000000 -0.600000
v 0.600000 1.000000 -0.600000
v -0.600000 -1.000000 -0.600000
v 0.600000 -1.000000 -0.600000
v -0.600000 1.000000 -0.600000
vn 0.000000 -1.000000 -0.000000
vn 0.000000 -1.000000 -0.000000
vn 0.000000 -1.000000 -0.000000
vn 0.000000 -1.000000 -0.000000
vn 0.000000 -1.000000 -0.000000
vn 0.000000 -1.000000 -0.000000
vn 0.000000 -1.000000 -0.000000
vn 0.000000 -1.000000 -0.000000
vn 0.000000 1.000000 -0.000000
vn 0.000000 1.000000 -0.000000
vn 0.000000 1.000000 -0.000000
vn 0.000000 1.000000 -0.000000
vn 0.000000 1.000000 -0.000000
vn 0.000000 1.000000 -0.000000
vn 0.000000 1.000000 -0.000000
vn 0.000000 1.000000 -0.000000
vn 0.000000 0.000000 1.000000
vn 0.000000 0.000000 1.000000
vn 0.000000 0.000000 1.000000
vn 0.000000 0.000000 1.000000
vn -1.000000 0.000000 -0.000000
vn -1.000000 0.000000 -0.000000
vn -1.000000 0.000000 -0.000000
vn -1.000000 0.000000 -0.000000
vn 0.000000 0.000000 -1.000000
vn 0.000000 0.000000 -1.000000
vn 0.000000 0.000000 -1.000000
vn 0.000000 0.000000 -1.000000
vn 1.000000 0.000000 -0.000000
vn 1.000000 0.000000 -0.000000
vn 1.000000 0.000000 -0.000000
vn 1.000000 0.000000 -0.000000
vn 1.000000 0.000000 -0.000000
vn 1.000000 0.000000 -0.000000
vn 1.000000 0.000000 -0.000000
vn 1.000000 0.000000 -0.000000
vn 0.000000 0.000000 -1.000000
vn 0.000000 0.000000 -1.000000
vn 0.000000 0.000000 -1.000000
vn 0.000000 0.000000 -1.000000
vn -1.000000 0.000000 -0.000000
vn -1.000000 0.000000 -0.000000
vn -1.000000 0.000000 -0.000000
vn -1.000000 0.000000 -0.000000
vn 0.000000 0.000000 1.000000
vn 0.000000 0.000000 1.000000
vn 0.000000 0.000000 1.000000
vn 0.000000 0.000000 1.000000
vt 0.459318 0.459318
vt 0.393701 0.393701
vt 0.459318 -0.459318
vt -0.459318 0.459318
vt -0.393701 0.393701
vt -0.393701 -0.393701
vt 0.393701 -0.393701
vt -0.459318 -0.459318
vt -0.459318 -0.459318
vt -0.393701 -0.393701
vt -0.459318 0.459318
vt 0.459318 -0.459318
vt 0.393701 -0.393701
vt 0.393701 0.393701
vt -0.393701 0.393701
vt 0.459318 0.459318
vt 0.459318 0.656168
vt -0.459318 -0.656168
vt 0.459318 -0.656168
vt -0.459318 0.656168
vt -0.459318 0.656168
vt 0.459318 -0.656168
vt 0.459318 0.656168
vt -0.459318 -0.656168
vt 0.459318 0.656168
vt -0.459318 -0.656168
vt 0.459318 -0.656168
vt -0.459318 0.656168
vt 0.459318 -0.656168
vt -0.459318 0.656168
vt -0.459318 -0.656168
vt 0.459318 0.656168
vt 0.393701 -0.656168
vt -0.393701 0.656168
vt -0.393701 -0.656168
vt 0.393701 0.656168
vt 0.393701 0.656168
vt -0.393701 -0.656168
vt 0.393701 -0.656168
vt -0.393701 0.656168
vt -0.393701 0.656168
vt 0.393701 -0.656168
vt 0.393701 0.656168
vt -0.393701 -0.656168
vt 0.393701 0.656168
vt -0.393701 -0.656168
vt 0.393701 -0.656168
vt -0.393701 0.656168
f 1/1/1 2/2/2 3/3/3
f 2/2/2 1/1/1 4/4/4
f 2/2/2 4/4/4 5/5/5
f 5/5/5 4/4/4 6/6/6
f 3/3/3 7/7/7 8/8/8
f 7/7/7 3/3/3 2/2/2
f 8/8/8 7/7/7 6/6/6
f 8/8/8 6/6/6 4/4/4
f 9/9/9 10/10/10 11/11/11
f 10/10/10 9/9/9 12/12/12
f 10/10/10 12/12/12 13/13/13
f 13/13/13 12/12/12 14/14/14
f 11/11/11 15/15/15 16/16/16
f 15/15/15 11/11/11 10/10/10
f 16/16/16 15/15/15 14/14/14
f 16/16/16 14/14/14 12/12/12
f 17/17/17 18/18/18 19/19/19
f 18/18/18 17/17/17 20/20/20
f 21/21/21 22/22/22 23/23/23
f 22/22/22 21/21/21 24/24/24
f 25/25/25 26/26/26 27/27/27
f 26/26/26 25/25/25 28/28/28
f 29/29/29 30/30/30 31/31/31
f 30/30/30 29/29/29 32/32/32
f 33/33/33 34/34/34 35/35/35
f 34/34/34 33/33/33 36/36/36
f 37/37/37 38/38/38 39/39/39
f 38/38/38 37/37/37 40/40/40
f 41/41/41 42/42/42 43/43/43
f 42/42/42 41/41/41 44/44/44
f 45/45/45 46/46/46 47/47/47
f 46/46/46 45/45/45 48/48/48

